<?xml version="1.0" standalone="no"?><!DOCTYPE svg PUBLIC "-//W3C//DTD SVG 1.1//EN" "http://www.w3.org/Graphics/SVG/1.1/DTD/svg11.dtd"><svg t="1607397720005" class="icon" viewBox="0 0 1024 1024" version="1.1" xmlns="http://www.w3.org/2000/svg" p-id="23782" xmlns:xlink="http://www.w3.org/1999/xlink" width="200" height="200"><defs><style type="text/css"></style></defs><path d="M383.843434 640.759292c204.285278 0 370.901707-70.25597 370.901707-156.392597 0-86.14379-166.616429-156.398737-370.901707-156.398737-204.275045 0-370.89045 70.254947-370.89045 156.398737 0 86.136627 166.615406 156.392597 370.89045 156.392597z" p-id="23783"></path><path d="M754.745141 725.467386c-64.41495 61.600863-206.255139 104.386233-370.901707 104.386234-164.636335 0-306.49085-42.78537-370.89045-104.386234v-122.36671c64.400624 61.600863 206.240812 104.386233 370.89045 104.386233 164.646568 0 306.486757-42.78537 370.901707-104.386233v122.36671z" p-id="23784"></path><path d="M754.745141 916.647208c-71.500308 55.697422-210.780189 93.497254-370.901707 93.497254-160.111284 0-299.405492-37.799832-370.89045-93.497254V805.106032c71.471655 55.709701 210.751537 93.532046 370.89045 93.532046 160.15017 0 299.430052-37.822345 370.901707-93.532046v111.541176zM635.813663 267.507055c204.289371 0 370.891474-56.969389 370.891474-126.822177S840.103034 13.856562 635.813663 13.856562c-204.270952 0-370.886357 56.976552-370.886358 126.828316s166.615406 126.822177 370.886358 126.822177zM1011.047016 349.682472c-39.922165 38.182548-109.582572 69.131359-196.001631 87.154815-11.709669-41.667922-62.364248-81.519479-103.33223-107.878771 133.454211-10.366071 244.479642-49.177951 299.334884-101.642755v122.366711zM1011.047016 540.862294c-42.494752 33.113099-108.960403 59.897062-189.510813 76.180901V505.529648c80.563713-16.283839 147.016061-43.082128 189.510813-76.20853v111.541176z" p-id="23785"></path></svg>