<?xml version="1.0" standalone="no"?><!DOCTYPE svg PUBLIC "-//W3C//DTD SVG 1.1//EN" "http://www.w3.org/Graphics/SVG/1.1/DTD/svg11.dtd"><svg t="1607394427408" class="icon" viewBox="0 0 1024 1024" version="1.1" xmlns="http://www.w3.org/2000/svg" p-id="1499" xmlns:xlink="http://www.w3.org/1999/xlink" width="200" height="200"><defs><style type="text/css"></style></defs><path d="M953.949091 740.957091a69.352727 69.352727 0 0 0-20.200727-43.706182c-15.546182-5.585455-40.448 16.244364-65.815273 0-30.068364-21.876364-10.379636-54.365091-20.200727-76.241454a55.854545 55.854545 0 0 0-50.269091-21.829819c-20.200727 27.461818-15.034182 43.706182-55.482182 43.706182-40.448-5.585455-30.580364-43.706182-60.509091-43.706182a40.634182 40.634182 0 0 0-40.448 21.876364 105.797818 105.797818 0 0 1-9.867636 65.582545c-25.413818 21.271273-40.448 0-65.815273 10.65891a45.893818 45.893818 0 0 0-20.200727 49.338181c5.166545 21.876364 40.448 27.461818 40.448 59.950546 0 43.752727-35.234909 43.752727-40.448 59.997091a54.504727 54.504727 0 0 0 15.034181 54.365091c10.379636 10.658909 40.448-11.217455 65.815273 10.658909a52.410182 52.410182 0 0 1 5.166546 59.950545 60.834909 60.834909 0 0 0 55.482181 32.581818c20.200727 0 20.200727-43.706182 60.509091-43.706181 30.580364 0 30.580364 21.876364 45.614546 38.120727 9.821091 11.217455 40.448-5.585455 55.482182-16.244364 9.821091-10.658909-9.867636-32.581818 0-59.950545a52.689455 52.689455 0 0 1 25.413818-21.829818 151.319273 151.319273 0 0 1 50.269091 0 72.890182 72.890182 0 0 0 20.200727-54.365091c-5.166545-16.802909-35.234909-11.217455-40.448-49.338182-5.213091-49.524364 40.401455-43.938909 50.269091-75.869091z m-191.813818 168.680727C646.004364 930.909091 600.203636 740.072727 721.687273 707.490909c141.544727-27.601455 157.090909 174.685091 40.448 202.193455z m-247.249455-393.402182A224.768 224.768 0 0 1 297.658182 281.367273 224.768 224.768 0 0 1 514.885818 46.545455a224.768 224.768 0 0 1 217.227637 234.821818 228.072727 228.072727 0 0 1-217.227637 234.868363z m176.872727 54.365091s-80.896 0-75.682909 59.950546c5.166545 65.582545-75.682909 16.244364-90.717091 71.168-20.200727 65.582545 9.821091 54.365091 25.413819 98.071272 9.867636 27.461818-40.448 43.706182-35.234909 93.09091 9.867636 65.582545 60.509091 32.581818 75.682909 71.168 9.867636 32.581818-25.413818 54.365091-106.263273 54.36509-65.815273 0-191.813818 0-237.381818-5.585454 0 0-131.165091-5.585455-131.165091-98.071273a388.282182 388.282182 0 0 1 75.682909-234.821818 308.782545 308.782545 0 0 1 232.261818-119.947636z" p-id="1500"></path></svg>