<svg xmlns="http://www.w3.org/2000/svg" viewBox="0 0 557.08 516.73"><title>盘存</title><g id="图层_2" data-name="图层 2"><g id="图层_1-2" data-name="图层 1"><path d="M311.12,11.69c9.83,6.56,68.81,49.56,130.66,95.44,122.06,90.93,127.79,97.08,104.45,112.23-10.24,6.55-11.47,6.55-22.94,0l-11.88-7V237c0,22.12-1.23,25.4-10.24,31.54-9.83,6.56-11.06,6.15-18.43-.41-6.55-6.14-8.19-13.51-9-46.28l-1.23-38.91-96.26-71.27c-52.83-38.92-97.48-70.87-98.71-70.87s-43.42,29.08-93.39,64.72L93.21,169.8,93.62,262c.82,50.79,2,119.6,3.68,153.6L99.76,477l70.45,2.05c59.4,1.64,71.68,3.27,77.42,9,6.14,5.73,6.55,9,2.46,17.61l-4.92,11.06-77-1.64c-109-1.64-106.91,0-107.73-114.69-.41-41-1.64-102-3.28-135.57l-2.45-60.21L39.55,214.85c-18,12.29-24.16,12.7-33.59,2.46C-9.19,200.52-3.46,194.78,120.24,103,185.78,54.7,244.76,11.69,251.32,7.6c18-11.47,38.09-9.84,59.8,4.09Z"/><polygon points="183.73 214.85 183.73 241.48 126.39 241.48 126.39 188.23 183.73 188.23 183.73 214.85"/><polygon points="249.26 214.85 249.26 241.48 196.02 241.48 196.02 188.23 249.26 188.23 249.26 214.85"/><polygon points="318.9 214.85 318.9 241.48 261.55 241.48 261.55 188.23 318.9 188.23 318.9 214.85"/><polygon points="183.73 282.44 183.73 311.11 126.39 311.11 126.39 253.76 183.73 253.76 183.73 282.44"/><polygon points="249.26 282.44 249.26 311.11 196.02 311.11 196.02 253.76 249.26 253.76 249.26 282.44"/><polygon points="183.73 347.98 183.73 376.65 126.39 376.65 126.39 319.3 183.73 319.3 183.73 347.98"/><path d="M408.6,249.26c65.13,20.48,102.4,86,84.38,149.91-3.69,13.52-7,26.63-7.37,29.09-.41,2.86,14.74,16.38,34,30.72,35.23,26.62,43,38.5,32.77,51.19C543,520.83,529,515.91,493.8,489.29L459,463.07l-28.26,14.34c-26.62,14.34-29.08,14.75-62.67,13.1-53.66-2.86-87.65-25.39-109.77-72.5-8.6-18.84-9.83-25.8-8.19-55.29,2.86-50,23.75-85.2,63.48-104.86,34.82-17.61,59.39-19.66,95-8.6Zm-73.73,42.6c-52.84,28.26-63.89,94.62-22.53,136,32.77,32.36,79.06,34.81,114.69,5.73,18.43-15.57,31.13-42.19,31.13-66.76,0-61.85-68.81-103.63-123.29-75Z"/></g></g></svg>