<?xml version="1.0" standalone="no"?><!DOCTYPE svg PUBLIC "-//W3C//DTD SVG 1.1//EN" "http://www.w3.org/Graphics/SVG/1.1/DTD/svg11.dtd"><svg t="1607395520844" class="icon" viewBox="0 0 1024 1024" version="1.1" xmlns="http://www.w3.org/2000/svg" p-id="35226" xmlns:xlink="http://www.w3.org/1999/xlink" width="200" height="200"><defs><style type="text/css"></style></defs><path d="M454.063036 16.476638c-16.42235 8.925072-32.231236 21.055895-47.228505 36.102025 10.382725 3.773069 22.350682 7.206833 35.76272 10.010847 3.287184-16.262198 7.07654-31.794212 11.465785-46.112872zM436.085314 100.051468c-20.390858-4.115088-39.229057-9.799121-55.504827-16.940807-13.379465 17.654704-25.931026 37.673684-37.478245 59.894073 13.441897 13.66991 42.662821 27.79313 84.125861 36.832209 2.05483-26.256758 4.921276-53.433711 8.857211-79.785475zM511.383823 672.037832h1.343646c9.022792-60.187233 20.341998-116.324524 33.851756-167.733264-11.354494 1.118348-22.934286 1.701953-34.530365 2.008685-11.579792-0.290445-23.146012-0.874049-34.514079-2.008685 13.507043 51.40874 24.828964 107.546031 33.849042 167.733264zM422.092386 303.951904c0.162866-22.301822 0.792616-52.478229 2.608575-86.167119-27.323532-5.572741-52.396796-13.555903-73.031953-23.792048 18.287168 31.226894 36.395184 66.050419 53.756729 104.598152 5.116716 1.878391 10.738317 3.659062 16.666649 5.361015zM617.263189 52.59495c-14.99727-15.04613-30.773583-27.176953-47.228506-36.102025 4.389246 14.31866 8.178602 29.850674 11.484787 46.129158 13.406609-2.820301 25.409854-6.254065 35.743719-10.027133zM564.103636 312.228225c-0.04886-32.084657-0.841476-61.514593-2.201409-88.401101-16.389776 1.976111-33.154145 2.931593-49.869654 3.319758-16.699222-0.371878-33.447304-1.343647-49.83708-3.319758-1.37622 26.870221-2.155264 56.300157-2.20141 88.401101 29.104204 7.467419 86.601428 7.206833 104.109553 0zM596.918477 179.836943c41.46304-9.039078 70.648676-23.162299 84.093287-36.832209-11.563506-22.223103-24.085208-42.242083-37.461958-59.894073-16.294771 7.141686-35.113969 12.828434-55.521114 16.940807 3.949507 26.351764 6.815954 53.528716 8.889785 79.785475zM559.003207 460.135234c2.494568-33.49345 4.210093-70.00264 4.842558-109.554715-16.796942 2.315416-34.256207 3.498911-51.764332 3.935935-17.524411-0.437025-34.953817-1.620519-51.764332-3.935935 0.632464 39.552075 2.331702 76.058551 4.842558 109.554715 0.453311 1.539086 0.890336 3.127033 1.343647 4.679691 20.293138 5.409875 69.676908 4.891417 91.186114 0 0.407166-1.552659 0.860477-3.140605 1.313787-4.679691zM559.537952 186.088293c-2.364275-30.578143-5.540168-57.027627-9.134084-80.303932-14.511385 4.3241-58.938591 4.049941-76.625869 0-3.629204 23.273591-6.818668 49.723074-9.166657 80.303932 18.477179 5.295868 79.101436 6.072198 94.92661 0zM543.712779 68.33869c-6.414217-30.271412-13.57219-52.364222-20.341998-67.912523-3.54777-0.567318-19.128644-0.567318-22.627555 0-6.802381 15.532014-13.944068 37.641111-20.358285 67.912523 15.515727 3.352331 51.066721 3.091745 63.327838 0zM618.688269 298.574602c17.361545-38.547733 35.453274-73.371258 53.773016-104.598152-20.651444 10.236145-45.738279 18.222022-73.064526 23.792049 1.813245 33.688889 2.445709 63.862582 2.608574 86.167118 5.944619-1.685666 11.579792-3.466337 16.682936-5.361015z" p-id="35227"></path><path d="M723.237561 146.617651a992.246505 992.246505 0 0 0-14.674252 22.19053c-2.94788 4.600972-5.879473 9.362096-8.811065 14.123221-5.621601 9.10151-11.240488 18.222022-16.862089 27.98857-12.956012 22.578695-26.159038 48.056409-39.21277 75.898399-7.627571 16.180765-15.127563 33.235578-22.562408 51.229588-6.965248 16.891947-13.832776 34.33764-20.488578 52.898966-7.96959 22.19053-15.548301 45.917432-22.86914 70.537385a1276.537734 1276.537734 0 0 0-11.37078 40.442411c-18.821913 70.876689-34.256207 151.148048-44.201908 241.267388-3.287184 30.092259-7.532565 61.498306-9.896841 93.859835-2.478282-32.426676-7.109113-63.620997-10.447871-93.859835-9.913127-90.11934-25.331135-170.404271-44.169335-241.264674a1358.671198 1358.671198 0 0 0-11.387067-40.442411c-7.320839-24.619952-14.902264-48.346854-22.869139-70.537384-6.655802-18.561327-13.52333-36.004305-20.504865-52.898967a1114.857667 1114.857667 0 0 0-22.529835-51.229587c-13.053732-27.825703-26.254044-53.319705-39.21277-75.8984-5.621601-9.766548-11.256774-18.884345-16.875661-27.988569a1071.432089 1071.432089 0 0 0-8.811065-14.123221 1087.878868 1087.878868 0 0 0-14.690539-22.19053C255.767916 80.792531 212.635497 36.02602 182.559524 9.025506 229.820603 115.130171 251.655542 327.290641 261.42209 472.656936c5.556454 82.782214 7.206833 143.941215 7.402272 151.340774 7.532565 117.087281 27.502685 203.479697 53.107979 267.374852 7.030394 17.524411 23.922342 50.955429 24.199214 51.50646 59.975506 108.162209 271.812958 108.162209 331.788465 0 0.274158-0.502171 17.185107-33.979334 24.166641-51.50646 25.591721-63.895155 45.578128-150.257713 53.091691-267.374852 0.211726-7.402272 1.845818-68.544987 7.402273-151.340774 9.782834-145.350009 31.582486-357.526765 78.862565-463.63143-29.999968 27.000514-73.145959 71.750738-118.205629 137.592145z" p-id="35228"></path></svg>