<?xml version="1.0" standalone="no"?><!DOCTYPE svg PUBLIC "-//W3C//DTD SVG 1.1//EN" "http://www.w3.org/Graphics/SVG/1.1/DTD/svg11.dtd"><svg t="1607397815201" class="icon" viewBox="0 0 1024 1024" version="1.1" xmlns="http://www.w3.org/2000/svg" p-id="26648" xmlns:xlink="http://www.w3.org/1999/xlink" width="200" height="200"><defs><style type="text/css"></style></defs><path d="M396.544 135.957333L73.28 459.221333a44.8 44.8 0 0 0 0 63.36L396.544 845.866667c6.613333 6.592 15.573333 10.304 24.896 10.304l3.84-0.213334a35.2 35.2 0 0 0 31.36-34.986666l-0.042667-189.034667 10.666667 0.426667c146.090667 7.168 278.314667 80.234667 359.658667 196.010666l47.402666 67.456 10.517334-81.770666c2.304-17.877333 3.456-35.946667 3.456-54.144l-0.106667-9.813334c-5.205333-227.946667-191.829333-412.074667-424.682667-422.122666l-6.869333-0.234667V160.853333a35.2 35.2 0 0 0-60.096-24.896z" p-id="26649"></path></svg>