<?xml version="1.0" encoding="utf-8"?>
<!-- Generator: Adobe Illustrator 23.0.0, SVG Export Plug-In . SVG Version: 6.00 Build 0)  -->
<svg version="1.1" id="图层_1" xmlns="http://www.w3.org/2000/svg" xmlns:xlink="http://www.w3.org/1999/xlink" x="0px" y="0px"
	 viewBox="0 0 200 200" style="enable-background:new 0 0 200 200;" xml:space="preserve">
<style type="text/css">
	.st0{clip-path:url(#SVGID_2_);}
	.st1{clip-path:url(#SVGID_4_);}
	.st2{fill:none;}
</style>
<g>
	<g>
		<defs>
			<rect id="SVGID_1_" x="17.5" y="35.5" width="165" height="129"/>
		</defs>
		<clipPath id="SVGID_2_">
			<use xlink:href="#SVGID_1_"  style="overflow:visible;"/>
		</clipPath>
		<path class="st0" d="M161.2,35.5H38.7C27,35.5,17.5,45,17.5,56.8v86.3c0,11.7,9.5,21.2,21.2,21.2h122.5c11.7,0,21.2-9.5,21.2-21.2
			V56.8C182.4,45,172.9,35.5,161.2,35.5L161.2,35.5z M115.9,79.3h38.5c2,0,3.6,1.7,3.6,3.8c0,2.1-1.6,3.8-3.6,3.8h-38.5
			c-2,0-3.6-1.7-3.6-3.8C112.4,81,113.9,79.3,115.9,79.3L115.9,79.3z M115.9,96.1h43.7c2,0,3.6,1.7,3.6,3.8c0,2.1-1.6,3.8-3.6,3.8
			h-43.7c-2,0-3.6-1.7-3.6-3.8C112.4,97.8,113.9,96.1,115.9,96.1L115.9,96.1z M102.3,137.7c-0.4-18.1-15.3-32.8-33.5-32.8
			c-15.8,0-29.1,10.9-32.6,25.7h32.6v7.1H28.6c0.4-18.3,13-33.6,30-38.1c-7-3.7-11.8-11-11.8-19.5c0-12.2,9.9-22,22-22
			c12.1,0,22,9.9,22,22c0,8.5-4.8,15.9-11.8,19.5c17,4.4,29.6,19.8,30,38.1L102.3,137.7L102.3,137.7z M166.6,120.6h-50.7
			c-2,0-3.6-1.7-3.6-3.8c0-2.1,1.6-3.8,3.6-3.8h50.7c2,0,3.6,1.7,3.6,3.8C170.2,118.9,168.6,120.6,166.6,120.6L166.6,120.6z
			 M166.6,120.6"/>
	</g>
	<path d="M53.2,86.5c2.3,5.6,7.4,9.5,13.4,10.3c6,0.8,11.9-1.7,15.6-6.4c3.7-4.8,4.5-11.1,2.2-16.7C82,68.1,77,64.2,71,63.4
		c-6-0.8-11.9,1.7-15.6,6.4C51.7,74.6,50.9,81,53.2,86.5L53.2,86.5z M53.2,86.5"/>
</g>
</svg>
