<?xml version="1.0" standalone="no"?><!DOCTYPE svg PUBLIC "-//W3C//DTD SVG 1.1//EN" "http://www.w3.org/Graphics/SVG/1.1/DTD/svg11.dtd"><svg t="1607396907558" class="icon" viewBox="0 0 1072 1024" version="1.1" xmlns="http://www.w3.org/2000/svg" p-id="2895" xmlns:xlink="http://www.w3.org/1999/xlink" width="209.375" height="200"><defs><style type="text/css"></style></defs><path d="M937.837714 301.104762C918.332952 230.351238 835.291429 0.975238 535.161905 0.975238c-297.74019 0-383.171048 229.424762-400.237715 300.178286C78.799238 323.047619 0.682667 381.659429 0.682667 496.39619c0 112.249905 78.116571 175.737905 131.803428 200.118858 7.314286 43.934476 29.257143 141.55581 124.440381 200.118857 68.36419 43.934476 151.30819 53.686857 207.433143 56.124952 12.190476 24.380952 36.62019 39.058286 63.488 39.058286 41.447619 0 73.191619-31.695238 73.191619-73.191619 0-39.058286-31.695238-73.240381-73.191619-73.240381-29.305905 0-53.686857 17.066667-65.926095 43.934476-48.761905-2.438095-117.126095-12.190476-173.251048-46.372571-90.307048-56.124952-95.183238-165.936762-95.183238-170.812953V330.410667c4.87619-29.257143 58.563048-263.606857 341.674667-263.606857 283.062857 0 336.798476 236.739048 341.674666 263.606857v344.112762c0 9.752381 4.87619 19.504762 12.190477 26.819047 4.87619 4.87619 12.190476 7.314286 19.504762 7.314286 2.438095 0 7.314286 0 9.75238-2.438095 53.735619-17.066667 153.795048-80.505905 153.795048-207.433143 0-117.126095-80.554667-175.689143-134.241524-197.680762z" p-id="2896"></path></svg>