<?xml version="1.0" standalone="no"?><!DOCTYPE svg PUBLIC "-//W3C//DTD SVG 1.1//EN" "http://www.w3.org/Graphics/SVG/1.1/DTD/svg11.dtd"><svg t="1607480911383" class="icon" viewBox="0 0 1024 1024" version="1.1" xmlns="http://www.w3.org/2000/svg" p-id="1790" xmlns:xlink="http://www.w3.org/1999/xlink" width="200" height="200"><defs><style type="text/css"></style></defs><path d="M511.3 288.8c46.6 0 94.6 9.5 142.6 28.3 42.4 16.6 83.8 39.8 123.1 69.1 42.2 31.4 70.5 61.4 86.8 80.9 17.2 20.6 26 35.6 29.8 43.6-3.9 8.1-12.9 23-30.2 43.8-16.5 19.8-44.9 49.9-86.9 81.5-39.2 29.6-80.6 53-122.8 69.7-48 19-95.9 28.6-142.5 28.6-46.4 0-94.3-9.6-142.2-28.4-42.3-16.6-83.6-39.9-122.9-69.3-42.1-31.5-70.5-61.5-87-81.1-17.3-20.7-26.2-35.6-30.1-43.6 3.8-8 12.6-23 29.8-43.7 29.6-35.7 63.5-63.9 86.7-81.3 39.2-29.4 80.6-52.8 122.9-69.5 48.1-19 96.2-28.6 142.9-28.6m0-64c-247.5 0-447.2 225-448.1 286.7-0.9 59.6 200.6 286.7 448.1 286.7s447-227.1 448.1-286.7c1.1-61.7-200.6-286.7-448.1-286.7z" p-id="1791"></path><path d="M512.2 512.2m-192.1 0a192.1 192.1 0 1 0 384.2 0 192.1 192.1 0 1 0-384.2 0Z" p-id="1792"></path></svg>