<?xml version="1.0" standalone="no"?><!DOCTYPE svg PUBLIC "-//W3C//DTD SVG 1.1//EN" "http://www.w3.org/Graphics/SVG/1.1/DTD/svg11.dtd"><svg t="1607397849068" class="icon" viewBox="0 0 1024 1024" version="1.1" xmlns="http://www.w3.org/2000/svg" p-id="27535" xmlns:xlink="http://www.w3.org/1999/xlink" width="200" height="200"><defs><style type="text/css"></style></defs><path d="M266.4 826.6c0 44.3 36.3 80.1 80.1 80.1h334.2c44.3 0 80.1-36.3 80.1-80.1V681.9h-495v144.7h0.6z m79-97.7h337.4c13.9 0 25.1 11.2 25.1 25.1 0 13.9-11.2 25.1-25.1 25.1H345.4c-13.9 0-25.1-11.2-25.1-25.1 0-13.9 11.3-25.1 25.1-25.1z m0 74.7h337.4c13.9 0 25.1 11.2 25.1 25.1 0 13.9-11.2 25.1-25.1 25.1H345.4c-13.9 0-25.1-11.2-25.1-25.1 0-13.8 11.3-25.1 25.1-25.1zM761.4 185.9c0-36.3-29.9-66.2-66.2-66.2H332.1c-36.3 0-66.2 29.9-66.2 66.2v85.4h495v-85.4h0.5z" p-id="27536"></path><path d="M804.1 246.8V314H223.7V246.7c-39.5 1.6-71.5 34.2-71.5 74.2v315.6c0 40 32 72.6 71.5 74.2v-71.5H804.1v71.5c39.5-1.6 71.5-34.2 71.5-74.2V321c0-40.1-31.5-72.6-71.5-74.2zM481.6 405.3H284c-9.6 0-17.6-8-17.6-17.6s8-17.6 17.6-17.6h197.6c9.6 0 17.6 8 17.6 17.6-0.5 9.6-8 17.6-17.6 17.6z" p-id="27537"></path></svg>