<svg t="1667792133985" class="icon" viewBox="0 0 1024 1024" version="1.1" xmlns="http://www.w3.org/2000/svg" p-id="1836" width="200" height="200"><path d="M923 338.5c-22.5-53.1-54.6-100.8-95.6-141.7-40.9-40.9-88.6-73.1-141.8-95.6-55-23.3-113.4-35.1-173.6-35.1s-118.6 11.8-173.6 35.1c-53.1 22.5-100.8 54.6-141.7 95.6-40.9 40.9-73.1 88.6-95.6 141.7C77.8 393.5 66 451.9 66 512.1s11.8 118.6 35.1 173.6c22.5 53.1 54.6 100.8 95.6 141.8 40.9 40.9 88.6 73.1 141.7 95.6 55 23.3 113.4 35.1 173.6 35.1s118.6-11.8 173.6-35.1c53.1-22.5 100.8-54.6 141.8-95.6 40.9-40.9 73.1-88.6 95.6-141.8 23.3-55 35.1-113.4 35.1-173.6S946.3 393.5 923 338.5zM782.2 782.2C710 854.3 614.1 894.1 512.1 894.1c-102 0-198-39.7-270.1-111.9-72.2-72.2-111.9-168.1-111.9-270.1 0-102 39.7-198 111.9-270.1 72.1-72.1 168.1-111.9 270.1-111.9 102 0 198 39.7 270.1 111.9 72.1 72.1 111.9 168.1 111.9 270.1 0 102-39.8 197.9-111.9 270.1z" p-id="1837"></path><path d="M543.1 512.6v-225c0-17.7-14.3-32-32-32s-32 14.3-32 32v257c0 17.7 14.3 32 32 32h257c17.7 0 32-14.3 32-32s-14.3-32-32-32h-225z" p-id="1838"></path></svg>