<?xml version="1.0" encoding="utf-8"?>
<!-- Generator: Adobe Illustrator 23.0.0, SVG Export Plug-In . SVG Version: 6.00 Build 0)  -->
<svg version="1.1" id="图层_1" xmlns="http://www.w3.org/2000/svg" xmlns:xlink="http://www.w3.org/1999/xlink" x="0px" y="0px"
	 viewBox="0 0 200 200" style="enable-background:new 0 0 200 200;" xml:space="preserve">
<style type="text/css">
	.st0{fill:#666666;}
	.st1{clip-path:url(#SVGID_2_);}
	.st2{clip-path:url(#SVGID_4_);}
	.st3{fill:none;}
</style>
<path d="M37.2,82.5C50.5,90,73.7,95,100,95s49.5-5,62.9-12.5c7.7,4.3,12.1,9.5,12.1,15c0,15.2-33.6,27.5-75,27.5s-75-12.3-75-27.5
	C25,92,29.5,86.8,37.2,82.5L37.2,82.5z M42.2,125c13.7,6.1,34.6,10,57.9,10s44.1-3.9,57.9-10c10.7,4.8,17.1,10.9,17.1,17.5
	c0,15.2-33.6,27.5-75,27.5s-75-12.3-75-27.5C25,135.8,31.5,129.8,42.2,125L42.2,125z M100,85c-41.4,0-75-12.3-75-27.5
	C25,42.3,58.6,30,100,30s75,12.3,75,27.5C175,72.7,141.4,85,100,85L100,85z M100,85"/>
</svg>
