<?xml version="1.0" standalone="no"?><!DOCTYPE svg PUBLIC "-//W3C//DTD SVG 1.1//EN" "http://www.w3.org/Graphics/SVG/1.1/DTD/svg11.dtd"><svg t="1607044741773" class="icon" viewBox="0 0 1024 1024" version="1.1" xmlns="http://www.w3.org/2000/svg" p-id="5422" xmlns:xlink="http://www.w3.org/1999/xlink" width="21" height="17"><defs><style type="text/css"></style></defs><path d="M667 298c0-17.1 2.7-33.6 7.7-49.1H309.4c-15.3 0-24.2 12-19.7 26.7L380 571.1c4.5 14.7 20.7 26.7 36 26.7h386.1c15.3 0 31.5-12 35.9-26.7l35.8-119.3c-14.7 4.3-30.2 6.7-46.3 6.7-88.7 0-160.5-71.9-160.5-160.5z" p-id="5423"></path><path d="M837.2 630.9H384.7c-20.4 1.1-34.9-37.8-34.9-37.8L235.2 220.5c-1.6-16-15.1-28.4-31.3-28.4H95.4c-17.4 0-31.4 14-31.4 31.4s14 31.4 31.4 31.4h79.9l111.8 343c10.6 37.4 23.2 62.9 41.6 78.2l-13.3 27.1c-12.1 19.6-18.3 34.5-18.5 49.8-0.1 7.7 2.1 15.8 6.5 22.1 6.8 9.6 16.3 13.5 23.4 15.3 7.4 1.8 13.7 1.9 18.3 1.9h21.7c0.7-15.6 5.9-29.9 14.6-41.8H345c-1.9 0.2-4.1 0-5.9-0.3 1.1-4.3 4.3-13.2 12.4-25.7l0.6-1 15.1-30.9c5.5 0.8 11.3 1.2 17.5 1.2v-0.1h452.5c17.4 0 31.4-14 31.4-31.4s-14-31.4-31.4-31.4z" p-id="5424"></path><path d="M444.3 733.4c-34.6 0-62.6 28-62.6 62.6s28 62.6 62.6 62.6 62.6-28 62.6-62.6-28-62.6-62.6-62.6z" p-id="5425"></path><path d="M762 796m-62.6 0a62.6 62.6 0 1 0 125.2 0 62.6 62.6 0 1 0-125.2 0Z" p-id="5426"></path><path d="M827.5 165.4c-73.2 0-132.5 59.3-132.5 132.5s59.3 132.5 132.5 132.5S960 371.1 960 297.9c0.1-73.1-59.3-132.5-132.5-132.5zM893.7 319h-45.2v45.2c0 11.6-9.4 21-21 21s-21-9.4-21-21V319h-45.2c-11.6 0-21-9.4-21-21s9.4-21 21-21h45.2v-45.2c0-11.6 9.4-21 21-21s21 9.4 21 21V277h45.2c11.6 0 21 9.4 21 21s-9.4 21-21 21zM521.7 792.4h162.9c0.7-15.6 5.9-29.9 14.6-41.8H507.1c8.6 11.9 13.9 26.3 14.6 41.8zM847.6 750.6h-22.8c8.6 11.9 13.9 26.3 14.6 41.8h8.2c11.5 0 20.9-9.4 20.9-20.9 0-11.5-9.4-20.9-20.9-20.9z" p-id="5427"></path></svg>