<?xml version="1.0" standalone="no"?><!DOCTYPE svg PUBLIC "-//W3C//DTD SVG 1.1//EN" "http://www.w3.org/Graphics/SVG/1.1/DTD/svg11.dtd"><svg t="1607394580724" class="icon" viewBox="0 0 1024 1024" version="1.1" xmlns="http://www.w3.org/2000/svg" p-id="2173" xmlns:xlink="http://www.w3.org/1999/xlink" width="200" height="200"><defs><style type="text/css"></style></defs><path d="M812.94628 903.286291v-71.259569q0-46.888796-55.439944-85.511482-46.960056-32.494363-122.780237-51.805706A482.498539 482.498539 0 0 0 511.874603 676.965901a481.643424 481.643424 0 0 0-122.851496 18.099931q-75.891441 19.240084-122.851496 51.805706-55.368685 38.622686-55.368685 85.511482v71.259569h602.143354zM511.874603 301.071677a145.013222 145.013222 0 0 0-74.680028 20.522756 152.067919 152.067919 0 0 0-55.439944 55.439944 146.438413 146.438413 0 0 0 0 149.645094 151.854141 151.854141 0 0 0 55.439944 55.368685 146.153375 146.153375 0 0 0 149.645094 0 152.780515 152.780515 0 0 0 55.368685-55.368685 146.438413 146.438413 0 0 0 0-149.645094 152.424217 152.424217 0 0 0-55.368685-55.439944 145.725818 145.725818 0 0 0-74.965066-20.522756z m0-199.526792a49.382881 49.382881 0 0 0-49.382881 49.382881 51.093111 51.093111 0 0 0 14.251914 36.128601 46.746277 46.746277 0 0 0 69.834377 0 51.734447 51.734447 0 0 0 14.251914-36.128601 47.81517 47.81517 0 0 0-14.251914-34.845929 47.245094 47.245094 0 0 0-34.917189-14.251914z m350.454558 0a96.913013 96.913013 0 0 1 71.259569 30.142798 96.984273 96.984273 0 0 1 30.142797 71.259568v717.227558a97.055532 97.055532 0 0 1-30.071538 71.259568 99.264579 99.264579 0 0 1-71.259568 32.565623H161.420045a99.335839 99.335839 0 0 1-71.259569-32.494363 97.055532 97.055532 0 0 1-30.142797-71.259569V202.305915a96.913013 96.913013 0 0 1 30.071538-71.259568 97.340571 97.340571 0 0 1 71.259568-30.142798H370.923176A151.355324 151.355324 0 0 1 424.510372 28.503827a148.504941 148.504941 0 0 1 174.657203 0 152.352958 152.352958 0 0 1 53.587195 72.68476z" p-id="2174"></path></svg>