<svg t="1667792182456" class="icon" viewBox="0 0 1024 1024" version="1.1" xmlns="http://www.w3.org/2000/svg" p-id="1979" width="200" height="200"><path d="M512 895.581091c-284.811636 0-465.454545-264.424727-465.454545-376.040727v-13.218909c0-111.616 180.642909-376.087273 465.454545-376.087273 287.604364 0 464.477091 260.794182 465.454545 375.482182v13.777454c-0.977455 115.153455-177.803636 376.087273-465.454545 376.087273z m0-695.482182c-240.221091 0-395.636364 227.560727-395.636364 306.269091v13.218909c0 78.708364 155.415273 306.222545 395.636364 306.222546 236.404364 0 394.845091-218.158545 395.636364-306.501819v-13.218909c-0.791273-88.064-159.232-305.989818-395.636364-305.989818z m0 495.709091a183.109818 183.109818 0 0 1-182.923636-182.877091c0-100.864 82.059636-182.923636 182.923636-182.923636s182.923636 82.059636 182.923636 182.923636A183.109818 183.109818 0 0 1 512 695.808z m0-295.982545c-62.370909 0-113.105455 50.734545-113.105455 113.105454 0 62.324364 50.734545 113.058909 113.105455 113.058909s113.105455-50.734545 113.105455-113.058909c0-62.370909-50.734545-113.105455-113.105455-113.105454z" p-id="1980"></path></svg>